<svg width="116" height="48" xmlns="http://www.w3.org/2000/svg" fill="none">
 <defs>
  <clipPath id="a">
   <path id="svg_1" d="m0,0l115.5,0l0,48l-115.5,0l0,-48z" fill="#fff"/>
  </clipPath>
 </defs>
 <g>
  <title>Layer 1</title>
  <g id="svg_2" clip-path="url(#a)">
   <path id="svg_3" d="m45.06,24.392l0,-16.19l5.13,0c3.342,0 5.848,1.988 5.848,5.41s-2.467,5.488 -5.847,5.488l-1.989,0l0,5.291l-3.142,0.001zm3.142,-8.313l1.83,0c1.592,0 2.745,-0.875 2.745,-2.467s-1.155,-2.425 -2.745,-2.425l-1.83,0l0,4.892zm50,26.094c-2.347,0 -5.21,-1.274 -5.21,-5.25l0,-5.688l2.943,0l0,5.49c0,1.83 0.836,2.626 2.267,2.626c1.313,0 2.268,-0.914 2.268,-2.625l0,-5.49l2.943,0l0,5.687c0,3.978 -2.904,5.25 -5.21,5.25m-25.337,0c-2.825,0 -5.291,-2.586 -5.291,-5.61c0,-3.023 2.466,-5.488 5.29,-5.488c1.592,0 2.667,0.557 3.301,1.55l0.319,-1.392l2.586,0l0,10.66l-2.586,0l-0.319,-1.351c-0.637,0.955 -1.83,1.63 -3.3,1.63m0.597,-8.434c-1.592,0 -2.783,1.194 -2.783,2.824c0,1.631 1.194,2.786 2.783,2.786c1.59,0 2.744,-1.233 2.744,-2.786c0,-1.63 -1.193,-2.824 -2.744,-2.824m19.291,-20.008l2.944,0l0,10.66l-2.944,0l0,-10.66zm1.512,-1.431c-1.033,0 -1.83,-0.795 -1.83,-1.791c0,-0.997 0.795,-1.83 1.83,-1.83a1.8,1.8 0 0 1 1.83,1.83c0,1.035 -0.795,1.79 -1.83,1.79m-5.928,5.806c0,-1.154 -0.637,-1.869 -1.63,-1.869c-1.155,0 -1.75,0.717 -1.75,1.91l0,6.245l-2.944,0l0,-6.286c0,-1.154 -0.637,-1.869 -1.63,-1.869c-1.155,0 -1.75,0.717 -1.75,1.91l0,6.245l-2.944,0l0,-10.66l2.586,0l0.318,1.392s0.637,-1.67 2.625,-1.67c1.233,0 2.268,0.518 2.983,1.592l0.08,0.12l0.08,-0.12c1.035,-1.47 2.306,-1.592 3.103,-1.592c2.268,0 3.819,1.711 3.819,4.137l0,6.803l-2.944,0l0,-6.286l-0.002,-0.002zm20.565,6.285l0,-10.66l2.547,0l0.318,1.551c0.477,-0.994 1.432,-1.67 2.705,-1.67q0.419,0 0.836,0.12l0,2.823a4.6,4.6 0 0 0 -1.035,-0.119c-1.432,0 -2.426,0.875 -2.426,2.586l0,5.37l-2.945,0m-51.872,0l0,-10.66l2.547,0l0.319,1.551c0.476,-0.994 1.431,-1.67 2.705,-1.67q0.416,0 0.836,0.12l0,2.823a4.6,4.6 0 0 0 -1.035,-0.119c-1.432,0 -2.426,0.875 -2.426,2.586l0,5.37l-2.947,0m-11.972,17.504l0,-15.792l3.142,0l0,12.807l6.842,0l0,2.983l-9.984,0.002zm16.347,0.277c-3.3,0 -5.728,-2.268 -5.728,-5.569c0,-2.982 2.187,-5.648 5.648,-5.648c2.586,0 5.25,1.95 5.25,5.568c0,0.278 0,0.637 -0.08,1.033l-7.797,0c0.277,1.194 1.351,1.989 2.664,1.989c1.193,0 2.107,-0.438 2.865,-1.233l1.79,1.83c-1.155,1.313 -2.825,2.03 -4.616,2.03m-0.158,-8.631c-1.233,0 -2.268,0.717 -2.506,1.869l4.932,0c-0.239,-1.113 -1.233,-1.87 -2.426,-1.87m48.926,8.63c-3.301,0 -5.729,-2.267 -5.729,-5.568c0,-2.982 2.188,-5.648 5.649,-5.648c2.586,0 5.249,1.95 5.249,5.568c0,0.278 0,0.637 -0.08,1.033l-7.797,0c0.278,1.194 1.352,1.989 2.667,1.989c1.193,0 2.107,-0.438 2.863,-1.233l1.789,1.83c-1.155,1.313 -2.825,2.03 -4.614,2.03m-0.158,-8.631c-1.232,0 -2.267,0.717 -2.505,1.869l4.931,0c-0.238,-1.113 -1.232,-1.87 -2.426,-1.87m-7.439,-8.871c-3.3,0 -5.729,-2.268 -5.729,-5.569c0,-2.982 2.188,-5.648 5.649,-5.648c2.586,0 5.25,1.95 5.25,5.568c0,0.277 0,0.637 -0.081,1.033l-7.796,0c0.279,1.194 1.351,1.99 2.666,1.99c1.193,0 2.107,-0.437 2.863,-1.234l1.789,1.83c-1.155,1.313 -2.824,2.03 -4.616,2.03m-0.158,-8.631c-1.232,0 -2.267,0.717 -2.506,1.869l4.932,0c-0.238,-1.113 -1.232,-1.87 -2.426,-1.87m-33.054,8.63c-3.301,0 -5.729,-2.267 -5.729,-5.568c0,-2.982 2.188,-5.648 5.649,-5.648c2.585,0 5.25,1.95 5.25,5.568c0,0.277 0,0.637 -0.08,1.033l-7.798,0c0.28,1.194 1.354,1.99 2.666,1.99c1.194,0 2.108,-0.437 2.866,-1.234l1.789,1.83c-1.155,1.313 -2.824,2.03 -4.616,2.03m-0.158,-8.631c-1.232,0 -2.267,0.717 -2.505,1.869l4.931,0c-0.238,-1.113 -1.232,-1.87 -2.426,-1.87m16.827,17.701c-1.551,0 -2.786,1.194 -2.786,2.824c0,1.631 1.233,2.786 2.786,2.786a2.767,2.767 0 0 0 2.785,-2.786c0,-1.63 -1.235,-2.824 -2.785,-2.824m2.625,-1.154l0.318,-1.352l2.586,0l0,10.184c0,1.988 -0.557,3.38 -1.87,4.416c-0.993,0.756 -2.347,1.313 -3.978,1.313c-2.226,0 -3.818,-0.756 -5.092,-1.989l1.631,-2.267c0.795,0.756 1.87,1.431 3.262,1.431c2.187,0 3.143,-1.074 3.143,-2.664l0,-0.755c-0.875,0.913 -1.909,1.273 -3.063,1.273c-3.023,0 -5.41,-2.467 -5.41,-5.61c0,-3.142 2.467,-5.488 5.49,-5.488c1.233,0 2.348,0.598 2.983,1.512m-80.978,-28.579c2.122,0.972 3.484,2.2 3.731,2.387c-0.112,-0.55 -0.53,-3.186 -0.77,-4.828c1.236,0.86 4.108,2.852 5.05,3.5c0.383,-1.187 1.718,-5.06 1.718,-5.06s2.408,3.901 2.82,4.536c0.502,-0.527 3.383,-3.73 4.128,-4.542c0.125,1.843 0.296,4.481 0.335,4.877c0.148,-0.197 1.25,-1.74 3.097,-3.166c-0.801,1.577 -1.182,3.756 -1.353,5.506a21.2,21.2 0 0 0 -5.714,-0.782c-3.796,0 -7.361,1 -10.443,2.75c-0.561,-1.687 -1.438,-3.79 -2.601,-5.178l0.002,0zm0,0c2.122,0.972 3.484,2.2 3.731,2.387c-0.112,-0.55 -0.53,-3.186 -0.77,-4.828c1.236,0.86 4.108,2.852 5.05,3.5c0.383,-1.187 1.718,-5.06 1.718,-5.06s2.408,3.901 2.82,4.536c0.502,-0.527 3.383,-3.73 4.128,-4.542c0.125,1.843 0.296,4.481 0.337,4.877c0.148,-0.197 1.25,-1.74 3.098,-3.166c-0.802,1.577 -1.183,3.756 -1.354,5.506a21.2,21.2 0 0 0 -5.714,-0.782c-3.796,0 -7.361,1 -10.443,2.75c-0.561,-1.687 -1.438,-3.79 -2.601,-5.178m29.06,33.265l-1.671,-1.854c-0.479,5.007 -2.928,9.256 -7.431,12.22l-0.687,-2.702c-3.823,2.764 -10.383,4.553 -16.016,1.37c0.697,-3.572 1.319,-7.187 -0.013,-11.519c-3.119,4.832 -5.882,6.725 -5.882,6.725c-2.106,-3.539 -1.917,-10.64 -1.29,-12.733l-3.51,1.088c0,-2.385 1.72,-7.45 4.206,-10.292l-2.192,-0.351a20.6,20.6 0 0 1 6.43,-7.639l0.003,0c-0.817,1.29 -0.828,4.472 1.566,5.683c-1.018,-1.782 -1.14,-3.983 -0.08,-5.124c1.063,-1.148 2.848,-0.754 3.987,0.138c-0.338,-0.994 -1.332,-2.243 -2.822,-2.33a20.46,20.46 0 0 1 9.384,-2.263a21,21 0 0 1 1.874,0.084c0.983,0.396 2.425,1.78 3.099,2.64c0,0 0.048,-1.015 -0.518,-2.241c3.66,0.888 5.404,2.378 6.136,3.099c0.15,1.579 0.624,2.53 1.25,4.033c-1.185,-1.33 -4.165,-3.47 -5.586,-3.983c0,0 -0.117,1.37 -0.606,2.031c-2.831,-2.044 -4.222,-2.555 -4.222,-2.555c-3.11,0.444 -5.107,1.643 -6.191,2.586l0.946,0.805c-1.873,0.576 -3.09,2.188 -3.09,2.188c0.012,0.028 1.674,0.264 1.674,0.264s-0.17,1.951 2.274,3.175c2.09,1.046 5.1,-0.251 7.933,0.884c-1.865,-2.15 -3.147,-3.113 -3.147,-3.113s-0.74,-0.153 -1.263,-0.151c-0.65,0.004 -1.617,0.134 -2.683,-0.282c-0.507,-0.197 -1.1,-0.548 -1.564,-0.84c0,0 1.308,-1.343 3.216,-1.64c0,0 1.722,0.486 3.089,1.495c0.907,-0.884 1.854,-0.856 1.854,-0.856s-0.938,0.877 -0.654,1.939c1.364,1.217 2.844,2.956 2.844,2.956c1.507,-0.827 4.782,-0.637 5.455,0.143c-0.853,-1.105 -2.081,-2.027 -3.032,-2.818c-0.115,-0.413 -1.152,-1.86 -1.328,-1.992c0,0 0.988,0.305 1.867,1.094c0.256,-0.36 0.728,-0.728 1.374,-0.89c0.664,0.556 0.78,1.41 0.762,1.552c-0.301,0.355 -0.591,0.503 -0.591,0.503l1.594,1.726l0.16,-1.239c3.675,5.248 5.68,11.33 3.101,18.977l-0.009,0.009zm-6.931,-11.312l-0.005,-2.714s-1.21,-0.39 -2.508,-1.395c-2.599,0.394 -5.75,3.008 -5.75,3.008s1.066,2.019 2.227,4.195c2.046,0.282 5.06,-2.297 6.031,-3.097l0.005,0.003zm2.616,4.922s-0.208,-1.122 -1.098,-2.172l-2.027,0.05s-2.738,2.352 -4.405,2.406c0,0 0.92,1.711 1.381,2.604c0.92,-0.2 2.537,-0.928 3.186,-1.681c0,0 0.431,1.388 0.349,3.023c0.914,-0.532 2.174,-1.966 2.616,-4.232l-0.002,0.002zm0.834,-8.92a13,13 0 0 1 -1.89,1.338l0.008,2.727c0.734,0.816 1.455,1.492 1.997,2.724c1.024,-1.843 0.83,-4.559 -0.115,-6.79" fill="#d1ff16"/>
  </g>
 </g>
</svg>